# xmcd CD database file
#
# Track frame offsets:
#	150
#	14564
#	27768
#	39080
#	59258
#	71150
#	89835
#	104791
#	120336
#	134860
#	147025
#	158791
#	172764
#	185249
#	199503
#	211944
#
# Disc length: 2984 seconds
#
# Revision: 0
# Processed by: cddbd v1.4PL0 Copyright (c) Steve Scherf et al.
# Submitted via: CDex 1.50beta10
#
DISCID=e80ba610
DTITLE=Ella Fitzgerald - Selection CD2/2
DYEAR=1999
DGENRE=Jazz
TTITLE0=I Love You For Sentimental Reason
TTITLE1=You Won't Be Satisfied
TTITLE2=Flying Home
TTITLE3=I'll Always Be In Love With You
TTITLE4=It's Only A Paper Moon
TTITLE5=I'll See You In My Dreams
TTITLE6=That's The Way It Is
TTITLE7=Benny's Coming Home On Saturday
TTITLE8=Into Each Live Some Rain Must Fall
TTITLE9=Stone Old Dead In The Market
TTITLE10=Three Little Words
TTITLE11=The One I Love Belongs To Someone Else
TTITLE12=Can't Help Lovin' Dat Man
TTITLE13=Taking A Chance On Love
TTITLE14=Cabin In The Sky
TTITLE15=A-Tisket A-Tasket
EXTD=YEAR: 1999
EXTT0=
EXTT1=
EXTT2=
EXTT3=
EXTT4=
EXTT5=
EXTT6=
EXTT7=
EXTT8=
EXTT9=
EXTT10=
EXTT11=
EXTT12=
EXTT13=
EXTT14=
EXTT15=
PLAYORDER=
